<svg xmlns="http://www.w3.org/2000/svg" width="50.572" height="47.016" viewBox="0 0 50.572 47.016">
  <path id="Path_127" data-name="Path 127" d="M3518,2987.409h-34.769a7.911,7.911,0,0,0-7.9,7.9v27.656a7.911,7.911,0,0,0,7.9,7.9H3502a1.975,1.975,0,0,0,1.562-3.185l-5.168-6.678,14.322-18.217,9.236,11.018v3.331a1.975,1.975,0,1,0,3.951,0v-21.828A7.911,7.911,0,0,0,3518,2987.409Zm-3.82,10.979a1.977,1.977,0,0,0-3.066.048l-15.212,19.351-5.181-6.694a1.971,1.971,0,0,0-1.562-.768h0a1.977,1.977,0,0,0-1.563.771l-4.348,5.65a1.975,1.975,0,1,0,3.131,2.41l2.787-3.622,8.809,11.384h-14.741a3.955,3.955,0,0,1-3.95-3.951v-27.656a3.955,3.955,0,0,1,3.95-3.951H3518a3.956,3.956,0,0,1,3.951,3.951v12.348Zm-25.022-3.866a5.927,5.927,0,1,0,5.926,5.926A5.933,5.933,0,0,0,3489.161,2994.521Zm0,7.9a1.976,1.976,0,1,1,1.975-1.977A1.978,1.978,0,0,1,3489.161,3002.424Zm36.744,22.618a1.976,1.976,0,0,1-1.976,1.976H3518.5v5.433a1.975,1.975,0,0,1-3.951,0v-5.433h-5.432a1.975,1.975,0,1,1,0-3.951h5.432v-5.433a1.975,1.975,0,0,1,3.951,0v5.433h5.433A1.976,1.976,0,0,1,3525.905,3025.042Z" transform="translate(-3475.333 -2987.409)" fill="#202020"/>
</svg>
